<svg xmlns="http://www.w3.org/2000/svg" viewBox="440 0 550 890">
  <path d="m 3337.99,3544.83 1179.79,1076.72 v 1938.1 L 3337.99,5590.6 V 3544.83"
        fill="#4ea9e2" transform="matrix(0.13333333,0,0,-0.13333333,0,1332.6667)"/>
  <path d="M 6169.48,9995.01 V 4621.55 l 1179.8,-1076.72 v 5491.29 l -1179.8,958.89"
        fill="#4ea9e2" transform="matrix(0.13333333,0,0,-0.13333333,0,1332.6667)"/>
  <path d="M 4753.74,7744.05 V 4836.89 l 589.89,538.37 589.9,-538.37 4.37,3973.72 -1184.16,-1066.56"
        fill="#4ea9e2" transform="matrix(0.13333333,0,0,-0.13333333,0,1332.6667)"/>
  <path d="m 4802.21,3425.19 h 430.69 v 430.68 h -430.69 v -430.68"
        fill="#4ea9e2" transform="matrix(0.13333333,0,0,-0.13333333,0,1332.6667)"/>
  <path d="m 5448.24,3425.19 h 430.7 v 430.68 h -430.7 v -430.68"
        fill="#4ea9e2" transform="matrix(0.13333333,0,0,-0.13333333,0,1332.6667)"/>
  <path d="m 5232.9,4501.91 h -430.69 v -430.69 h 430.69 v 430.69"
        fill="#4ea9e2" transform="matrix(0.13333333,0,0,-0.13333333,0,1332.6667)"/>
  <path d="m 5448.24,4501.91 v -430.69 h 430.7 v 430.69 h -430.7"
        fill="#4ea9e2" transform="matrix(0.13333333,0,0,-0.13333333,0,1332.6667)"/>
</svg>