<?xml version="1.0" encoding="UTF-8" standalone="no"?>
<!-- Created with Inkscape (http://www.inkscape.org/) -->

<svg
   version="1.1"
   id="svg1"
   width="1424.9733"
   height="1332.6667"
   viewBox="0 0 1424.9733 1332.6667"
   sodipodi:docname="Logo Stacked.eps"
   xmlns:inkscape="http://www.inkscape.org/namespaces/inkscape"
   xmlns:sodipodi="http://sodipodi.sourceforge.net/DTD/sodipodi-0.dtd"
   xmlns="http://www.w3.org/2000/svg"
   xmlns:svg="http://www.w3.org/2000/svg">
  <defs
     id="defs1" />
  <sodipodi:namedview
     id="namedview1"
     pagecolor="#ffffff"
     bordercolor="#000000"
     borderopacity="0.25"
     inkscape:showpageshadow="2"
     inkscape:pageopacity="0.0"
     inkscape:pagecheckerboard="0"
     inkscape:deskcolor="#d1d1d1">
    <inkscape:page
       x="0"
       y="0"
       inkscape:label="1"
       id="page1"
       width="1424.9733"
       height="1332.6667"
       margin="0"
       bleed="0" />
  </sodipodi:namedview>
  <g
     id="g1"
     inkscape:groupmode="layer"
     inkscape:label="1">
    <g
       id="group-R5">
      <path
         id="path2"
         d="M 0,42.3398 V 1905.12 H 426.895 V 1485.3 c 131.691,317.51 351.593,469.22 659.735,455.1 v -451.58 h -24.69 c -192.877,0 -346.96,-62.95 -462.174,-188.75 C 484.504,1174.22 426.895,991.371 426.895,751.469 V 42.3398 H 0"
         style="fill:#21303b;fill-opacity:1;fill-rule:nonzero;stroke:none"
         transform="matrix(0.13333333,0,0,-0.13333333,0,1332.6667)" />
      <path
         id="path3"
         d="m 1684.25,1104.26 h 956.1 c -14.12,143.44 -62.35,261.08 -144.67,352.8 -82.34,91.73 -191.71,137.6 -328.08,137.6 -129.4,0 -237.61,-45.31 -324.59,-135.83 -87.04,-90.56 -139.95,-208.76 -158.76,-354.57 z M 2216.99,0 C 1944.11,0 1716.55,89.9609 1534.32,269.891 1352.01,449.82 1260.89,682.059 1260.89,966.672 v 7.058 c 0,270.44 85.83,499.77 257.55,687.96 171.66,188.14 389.23,282.25 652.67,282.25 282.26,0 501.53,-95.87 657.97,-287.54 156.4,-191.73 234.63,-429.86 234.63,-714.42 0,-23.539 -2.38,-63.511 -7.06,-119.96 H 1687.78 c 23.49,-148.168 83.46,-264.051 179.94,-347.5 96.4,-83.52 215.2,-125.239 356.32,-125.239 183.45,0 351.58,74.078 504.51,222.258 L 2979.03,349.281 C 2786.15,116.422 2532.13,0 2216.99,0"
         style="fill:#21303b;fill-opacity:1;fill-rule:nonzero;stroke:none"
         transform="matrix(0.13333333,0,0,-0.13333333,0,1332.6667)" />
      <path
         id="path4"
         d="m 4386.3,373.969 c 150.5,0 276.95,54.683 379.28,164.062 102.3,109.371 153.46,253.399 153.46,432.168 v 7.063 c 0,176.398 -51.77,319.828 -155.23,430.418 -103.54,110.53 -229.33,165.81 -377.51,165.81 -148.16,0 -275.78,-55.9 -382.78,-167.58 -107.05,-111.74 -160.53,-254.63 -160.53,-428.648 v -7.063 c 0,-174.078 53.48,-316.957 160.53,-428.648 107,-111.742 234.62,-167.582 382.78,-167.582 z M 4485.09,3.53906 c -256.39,0 -466.91,109.35894 -631.51,328.08194 V 42.3398 h -426.9 V 2617.79 h 426.9 V 1594.66 c 164.6,232.84 375.12,349.28 631.51,349.28 235.17,0 438.63,-87.66 610.34,-262.84 171.67,-175.25 257.55,-409.86 257.55,-703.838 v -7.063 c 0,-294.027 -85.88,-528.636 -257.55,-703.828 C 4923.72,91.1211 4720.26,3.53906 4485.09,3.53906"
         style="fill:#21303b;fill-opacity:1;fill-rule:nonzero;stroke:none"
         transform="matrix(0.13333333,0,0,-0.13333333,0,1332.6667)" />
      <path
         id="path5"
         d="m 6368.34,3.53906 c -207,0 -369.3,64.65234 -486.86,194.03094 -117.65,129.321 -176.41,303.41 -176.41,522.141 V 1905.12 h 426.89 V 846.719 c 0,-145.86 34.67,-258.16 104.08,-336.918 69.33,-78.821 167.57,-118.192 294.6,-118.192 124.62,0 225.78,41.121 303.39,123.481 77.62,82.312 116.42,195.199 116.42,338.68 v 1051.35 h 426.9 V 42.3398 h -426.9 V 331.621 C 6802.29,112.898 6608.23,3.53906 6368.34,3.53906"
         style="fill:#21303b;fill-opacity:1;fill-rule:nonzero;stroke:none"
         transform="matrix(0.13333333,0,0,-0.13333333,0,1332.6667)" />
      <path
         id="path6"
         d="M 7855.37,42.3398 V 1905.12 h 426.89 V 42.3398 Z M 7837.73,2190.89 v 405.72 h 458.64 v -405.72 h -458.64"
         style="fill:#21303b;fill-opacity:1;fill-rule:nonzero;stroke:none"
         transform="matrix(0.13333333,0,0,-0.13333333,0,1332.6667)" />
      <path
         id="path7"
         d="M 8772.3,42.3398 V 2617.79 h 426.87 V 42.3398 H 8772.3"
         style="fill:#21303b;fill-opacity:1;fill-rule:nonzero;stroke:none"
         transform="matrix(0.13333333,0,0,-0.13333333,0,1332.6667)" />
      <path
         id="path8"
         d="m 10295.7,10.5898 c -357.58,0 -536.3,182.2502 -536.3,546.8402 v 980.78 h -236.36 v 366.91 h 236.36 v 511.56 h 426.9 v -511.56 h 501 v -366.91 h -501 V 624.461 c 0,-155.231 76.4,-232.852 229.3,-232.852 91.7,0 179.9,21.18 264.6,63.512 V 105.84 c -112.9,-63.5002 -241.1,-95.2502 -384.5,-95.2502"
         style="fill:#21303b;fill-opacity:1;fill-rule:nonzero;stroke:none"
         transform="matrix(0.13333333,0,0,-0.13333333,0,1332.6667)" />
      <path
         id="path9"
         d="m 3337.99,3544.83 1179.79,1076.72 v 1938.1 L 3337.99,5590.6 V 3544.83"
         style="fill:#4ea9e2;fill-opacity:1;fill-rule:nonzero;stroke:none"
         transform="matrix(0.13333333,0,0,-0.13333333,0,1332.6667)" />
      <path
         id="path10"
         d="M 6169.48,9995.01 V 4621.55 l 1179.8,-1076.72 v 5491.29 l -1179.8,958.89"
         style="fill:#4ea9e2;fill-opacity:1;fill-rule:nonzero;stroke:none"
         transform="matrix(0.13333333,0,0,-0.13333333,0,1332.6667)" />
      <path
         id="path11"
         d="M 4753.74,7744.05 V 4836.89 l 589.89,538.37 589.9,-538.37 4.37,3973.72 -1184.16,-1066.56"
         style="fill:#4ea9e2;fill-opacity:1;fill-rule:nonzero;stroke:none"
         transform="matrix(0.13333333,0,0,-0.13333333,0,1332.6667)" />
      <path
         id="path12"
         d="m 4802.21,3425.19 h 430.69 v 430.68 h -430.69 v -430.68"
         style="fill:#4ea9e2;fill-opacity:1;fill-rule:nonzero;stroke:none"
         transform="matrix(0.13333333,0,0,-0.13333333,0,1332.6667)" />
      <path
         id="path13"
         d="m 5448.24,3425.19 h 430.7 v 430.68 h -430.7 v -430.68"
         style="fill:#4ea9e2;fill-opacity:1;fill-rule:nonzero;stroke:none"
         transform="matrix(0.13333333,0,0,-0.13333333,0,1332.6667)" />
      <path
         id="path14"
         d="m 5232.9,4501.91 h -430.69 v -430.69 h 430.69 v 430.69"
         style="fill:#4ea9e2;fill-opacity:1;fill-rule:nonzero;stroke:none"
         transform="matrix(0.13333333,0,0,-0.13333333,0,1332.6667)" />
      <path
         id="path15"
         d="m 5448.24,4501.91 v -430.69 h 430.7 v 430.69 h -430.7"
         style="fill:#4ea9e2;fill-opacity:1;fill-rule:nonzero;stroke:none"
         transform="matrix(0.13333333,0,0,-0.13333333,0,1332.6667)" />
    </g>
  </g>
</svg>
